<svg width="20" height="20" viewBox="0 0 20 20" fill="none" xmlns="http://www.w3.org/2000/svg">
<path d="M11.25 4.79167H8.73331C7.71665 4.79167 6.87498 3.96665 6.85831 2.94998L6.83331 1.67501C6.82498 1.33334 7.09996 1.04166 7.44163 1.03333C7.44996 1.03333 7.44998 1.03333 7.45831 1.03333C7.79998 1.03333 8.07498 1.30831 8.08331 1.64164L8.10831 2.91667C8.11665 3.25 8.39998 3.53333 8.73331 3.53333H11.25C11.6 3.53333 11.875 3.24999 11.875 2.90833V1.66667C11.875 1.325 12.1583 1.04167 12.5 1.04167C12.8416 1.04167 13.125 1.325 13.125 1.66667V2.91667C13.125 3.95 12.2833 4.79167 11.25 4.79167Z" fill="#5D2A6A"/>
<path d="M14.1667 18.125C14.0083 18.125 13.85 18.0667 13.725 17.9417L12.0583 16.275C11.8167 16.0333 11.8167 15.6333 12.0583 15.3916L13.725 13.725C13.9667 13.4833 14.3667 13.4833 14.6083 13.725C14.85 13.9666 14.85 14.3667 14.6083 14.6083L13.3833 15.8333L14.6083 17.0583C14.85 17.3 14.85 17.7 14.6083 17.9417C14.4833 18.0667 14.325 18.125 14.1667 18.125Z" fill="#5D2A6A"/>
<path d="M16.6666 18.125C16.5083 18.125 16.35 18.0667 16.225 17.9417C15.9833 17.7 15.9833 17.3 16.225 17.0583L17.45 15.8333L16.225 14.6083C15.9833 14.3667 15.9833 13.9666 16.225 13.725C16.4666 13.4833 16.8666 13.4833 17.1083 13.725L18.7749 15.3916C19.0166 15.6333 19.0166 16.0333 18.7749 16.275L17.1083 17.9417C16.9833 18.0667 16.825 18.125 16.6666 18.125Z" fill="#5D2A6A"/>
<path d="M10.8333 18.9583H6.66667C3.625 18.9583 1.875 17.2083 1.875 14.1667V5.83332C1.875 2.79166 3.625 1.04166 6.66667 1.04166H13.3333C16.375 1.04166 18.125 2.79166 18.125 5.83332V11.6667C18.125 12.0083 17.8417 12.2917 17.5 12.2917C17.1583 12.2917 16.875 12.0083 16.875 11.6667V5.83332C16.875 3.44999 15.7167 2.29166 13.3333 2.29166H6.66667C4.28333 2.29166 3.125 3.44999 3.125 5.83332V14.1667C3.125 16.55 4.28333 17.7083 6.66667 17.7083H10.8333C11.175 17.7083 11.4583 17.9917 11.4583 18.3333C11.4583 18.675 11.175 18.9583 10.8333 18.9583Z" fill="#5D2A6A"/>
</svg>
