<svg width="74" height="68" viewBox="0 0 74 68" fill="none" xmlns="http://www.w3.org/2000/svg">
<circle cx="33.7463" cy="33.5053" r="33.0937" fill="#F1F1F1"/>
<circle cx="33.4758" cy="33.5618" r="19.3281" fill="#F1F1F1" stroke="#C4C4C4" stroke-width="0.922156"/>
<circle cx="33.4756" cy="33.5618" r="13.6741" fill="#FFFEFF" stroke="#C4C4C4" stroke-width="0.922156"/>
<path d="M33.4756 23.1698C33.4756 22.9623 33.3072 22.7933 33.0998 22.8006C30.5027 22.8912 28.021 23.9187 26.1175 25.7002C24.2141 27.4818 23.0248 29.8902 22.7627 32.4756C22.7418 32.6821 22.8992 32.8613 23.1063 32.875C23.3134 32.8887 23.4917 32.7318 23.5132 32.5253C23.7623 30.1303 24.867 27.9002 26.6312 26.249C28.3953 24.5979 30.6935 23.643 33.0998 23.5527C33.3072 23.545 33.4756 23.3774 33.4756 23.1698Z" fill="#C4C4C4"/>
<rect x="48.542" y="54.5472" width="6.45509" height="19.3653" rx="3.22754" transform="rotate(-45 48.542 54.5472)" fill="#F1F1F1" stroke="#C4C4C4" stroke-width="0.922156"/>
<rect x="55.3551" y="56.1012" width="0.898345" height="7.53237" rx="0.449172" transform="rotate(-45 55.3551 56.1012)" fill="white"/>
<rect x="47.8864" y="49.9792" width="0.922156" height="3.68862" transform="rotate(-45 47.8864 49.9792)" fill="#C4C4C4"/>
<rect x="57.6708" y="31.2397" width="9.22156" height="0.922156" rx="0.461078" fill="#C4C4C4"/>
<rect x="0.652588" y="38.8682" width="9.22156" height="0.922156" rx="0.461078" fill="#C4C4C4"/>
<rect x="68.7367" y="31.2397" width="4.61078" height="0.922156" rx="0.461078" fill="#C4C4C4"/>
<rect x="59.9762" y="34.6231" width="4.61078" height="0.922156" rx="0.461078" fill="#C4C4C4"/>
<rect x="2.95801" y="42.2516" width="4.61078" height="0.922156" rx="0.461078" fill="#C4C4C4"/>
</svg>
