<svg width="69" height="61" viewBox="0 0 69 61" fill="none" xmlns="http://www.w3.org/2000/svg">
<circle cx="37.7391" cy="30.4756" r="28.4199" fill="#F0F0F0"/>
<path d="M42.1546 23.7706L68.811 31.2932L66.0309 60.8933L34.1413 52.88L42.1546 23.7706Z" fill="#D2D2D2"/>
<path d="M68.6475 31.1297L40.6828 23.9341C39.32 25.8966 35.8094 30.9662 32.6695 35.5452C29.5296 40.1242 24.0566 45.739 21.7126 47.9739L54.4198 57.6226C55.0195 57.2955 57.5597 54.9079 62.9237 47.9739C68.2877 41.04 68.9745 33.8553 68.6475 31.1297Z" fill="#F3F3F3" stroke="#CCCCCC" stroke-width="0.327072"/>
<circle cx="43.1357" cy="31.6203" r="1.30829" fill="#C4C4C4"/>
<circle cx="39.211" cy="38.4888" r="1.30829" fill="#C4C4C4"/>
<circle cx="35.2859" cy="44.7032" r="1.30829" fill="#C4C4C4"/>
<circle cx="16.85" cy="16.7676" r="11.9345" transform="rotate(25.8347 16.85 16.7676)" fill="#F0F0F0" stroke="#D2D2D2" stroke-width="0.327072"/>
<rect width="6.54144" height="0.981217" transform="matrix(1 0 0 -1 13.0887 20.2019)" fill="#C4C4C4"/>
<circle cx="9.9813" cy="14.8052" r="1.7989" fill="#C4C4C4"/>
<circle cx="22.7374" cy="14.8052" r="1.7989" fill="#C4C4C4"/>
<rect x="42.5534" y="39.6179" width="15.6995" height="0.654144" rx="0.327072" transform="rotate(15.5 42.5534 39.6179)" fill="#C4C4C4"/>
<rect x="39.1296" y="46.2461" width="14.2102" height="0.654144" rx="0.327072" transform="rotate(15.5 39.1296 46.2461)" fill="#C4C4C4"/>
<rect x="46.8635" y="32.6165" width="15.6995" height="0.654144" rx="0.327072" transform="rotate(14.5 46.8635 32.6165)" fill="#C4C4C4"/>
</svg>
